<svg width="32" height="32" viewBox="0 0 32 32" fill="none" xmlns="http://www.w3.org/2000/svg">
<rect x="8.75" y="7.75" width="14.5" height="17.5" rx="1.25" stroke="#118EEA" stroke-width="1.5"/>
<path d="M12 12.25C11.5858 12.25 11.25 12.5858 11.25 13C11.25 13.4142 11.5858 13.75 12 13.75V12.25ZM20 13.75C20.4142 13.75 20.75 13.4142 20.75 13C20.75 12.5858 20.4142 12.25 20 12.25V13.75ZM12 13.75H20V12.25H12V13.75Z" fill="#333333"/>
<path d="M12 16.25C11.5858 16.25 11.25 16.5858 11.25 17C11.25 17.4142 11.5858 17.75 12 17.75V16.25ZM18 17.75C18.4142 17.75 18.75 17.4142 18.75 17C18.75 16.5858 18.4142 16.25 18 16.25V17.75ZM12 17.75H18V16.25H12V17.75Z" fill="#333333"/>
<path d="M12 20.25C11.5858 20.25 11.25 20.5858 11.25 21C11.25 21.4142 11.5858 21.75 12 21.75V20.25ZM16 21.75C16.4142 21.75 16.75 21.4142 16.75 21C16.75 20.5858 16.4142 20.25 16 20.25V21.75ZM12 21.75H16V20.25H12V21.75Z" fill="#333333"/>
<path d="M12.75 6C12.75 5.58579 12.4142 5.25 12 5.25C11.5858 5.25 11.25 5.58579 11.25 6L12.75 6ZM11.25 9C11.25 9.41421 11.5858 9.75 12 9.75C12.4142 9.75 12.75 9.41421 12.75 9L11.25 9ZM11.25 6L11.25 9L12.75 9L12.75 6L11.25 6Z" fill="#333333"/>
<path d="M20.75 6C20.75 5.58579 20.4142 5.25 20 5.25C19.5858 5.25 19.25 5.58579 19.25 6L20.75 6ZM19.25 9C19.25 9.41421 19.5858 9.75 20 9.75C20.4142 9.75 20.75 9.41421 20.75 9L19.25 9ZM19.25 6L19.25 9L20.75 9L20.75 6L19.25 6Z" fill="#333333"/>
</svg>
